<svg xmlns="http://www.w3.org/2000/svg" viewBox="0 0 37.99 37.03"><defs><style>.cls-1{fill:#0f0a08;}</style></defs><title>Asset 5</title><g id="Layer_2" data-name="Layer 2"><g id="Layer_1-2" data-name="Layer 1"><path class="cls-1" d="M13.1.61,14,.4A1.24,1.24,0,0,0,15.29.12c.24.19.44.09.63-.08l.48,0,1.38.15L19.7,1.65c0,.24.08.35.32.36l1,1.91a10.35,10.35,0,0,0,1.43,3.36c-.15.5.62,1.17-.13,1.49a1.38,1.38,0,0,1-1.85-.53c-.08-.14-.12-.3-.2-.44C19.37,6.21,18.47,4.61,17.54,3c-.81-1.38-1.46-1.63-2.94-1a4.83,4.83,0,0,0-2.32,1.61C11.45,4.75,10.53,5.85,9.66,7c-.34.45-.73,1-.3,1.51.61.72.88-.18,1.3-.4a6.78,6.78,0,0,1,1.74-.75c1.91-.37,3.47,1,3.1,2.52-.12.52-.38.9-.94.92a.82.82,0,0,1-.93-.86c0-.61,0-1.28-.74-1.12-1.54.31-3.17,0-4.65.76s-1.68.9-.52,2.42a6.78,6.78,0,0,1,.51.81c.84,1.5,1.89,2.41,3.82,2a3,3,0,0,1,3.68,1.8,4.69,4.69,0,0,1,.59,1.92c0,1.28-.07,2.56,0,3.83A2.58,2.58,0,0,0,18.67,25a7,7,0,0,0,2.8.1c2.15-.42,4-1.47,6.09-2.08.83-.25,1.18-.41,1.25-1.29a27.12,27.12,0,0,1,3.44-10.86,10.33,10.33,0,0,0,1.12-4.08,11.18,11.18,0,0,0-5.54,2.55c-1.37,1.09-2.85,2-4.2,3.16a26.52,26.52,0,0,1-3.88,2.33.82.82,0,0,1-1.08-.15c-.22-.25-.06-.61.12-.87a13.88,13.88,0,0,1,1-1.32A35.88,35.88,0,0,1,28,6a1.23,1.23,0,0,0,.94-.54,2.92,2.92,0,0,0,1.47-.87l2.31-1.18a11.59,11.59,0,0,0,3.34-.64h1l.46.11c.91,1.59.28,3.12-.28,4.59-1.2,3.13-2.49,6.22-3.74,9.33a15.36,15.36,0,0,0-1.23,4.11,4.67,4.67,0,0,1-1.9,2.83c-.7.64-.85,1.08-.41,1.74a11.51,11.51,0,0,1,1.82,3.6c.17.7.84.59,1.36.73,1.36.37,2.84.48,3.89,1.61-.32.47-.66.75-1.23.53a15.35,15.35,0,0,0-2-.7c-.52-.12-1.3-.42-1.55.12-.37.82.57.67,1,.93,1,.64.92,1.77,1.09,2.76.06.36-.34.48-.63.6a.6.6,0,0,1-.8-.3c-.32-.64-.56-1.32-.89-2.1-1.09.22-2,2.3-3.34.39a8.29,8.29,0,0,1,.67-1.19c1.6-2,.62-3.9-.36-5.75-.26-.48-.65-1-1.33-.65-1.27.7-2.74.81-4,1.47-.94.48-1.16,1-.71,1.86a6.06,6.06,0,0,1,.61,2c0,.31.07.77.41.78,1.78,0,2,1.54,2.71,2.65a11.15,11.15,0,0,0,1.24,1.4c-1.6.64-1.7.57-4.26-3.3-.86.69-.4,1.6-.46,2.4,0,.55.09,1.19-.46,1.53s-1.08,0-1.39-.5c-.46-.7-.9-.37-1.4-.11a3.44,3.44,0,0,1-2.77.24,1.12,1.12,0,0,1-.86-1c-.06-.47.2-.71.59-.92.7-.38,1.38-.79,2.05-1.22A4.08,4.08,0,0,0,20,28a2,2,0,0,0-1.17-.77A29.16,29.16,0,0,1,14.42,25a2.78,2.78,0,0,1-1.58-2.58A18.15,18.15,0,0,1,13,18.59c.1-1-.18-1.52-1.32-1.31a7,7,0,0,0-2.92,1c-2.28,1.64-4.91,1.66-7.53,1.55C.25,19.78.2,18.75,0,18a3.07,3.07,0,0,1,.19-1.15A12.69,12.69,0,0,0,1,13.94a5,5,0,0,0,1.08-2.66,4.33,4.33,0,0,0,1.17-1.6.35.35,0,0,0,.26-.27L5.9,7.85c.66.06.92-.31,1-.91a.64.64,0,0,0,.41-.68L8.8,3.64l2-2.13a.84.84,0,0,0,.86-.5C12.14,1,12.7,1.09,13.1.61ZM4.57,17.19c1.27-.25,2.13-1.41,3.71-1.38-1.19-1-.88-2.85-2.59-3.23C5,14.05,4.09,15.4,4.57,17.19Z"/></g></g></svg>