<svg xmlns="http://www.w3.org/2000/svg" viewBox="0 0 45.95 37.17"><defs><style>.cls-1{fill:#0f0a08;}</style></defs><title>Asset 4</title><g id="Layer_2" data-name="Layer 2"><g id="Layer_1-2" data-name="Layer 1"><path class="cls-1" d="M41.92,4a1.5,1.5,0,0,0,.79,1c1.4,2.87,2.87,5.72,2.72,9.05-.27,1.46.22,2.85.38,4.28a2,2,0,0,0,.09,1.48,6.75,6.75,0,0,0-.06,2.88,24.67,24.67,0,0,0,.11,9.12c-.32,1.05-1.26,1.45-2.08,2-.33-.07-.49.09-.55.4-1.39.39-2.92-.19-4.25.63a13.66,13.66,0,0,0-6.57.41,64.93,64.93,0,0,1-6.94,1.54,11.31,11.31,0,0,0-3.29.36,1.08,1.08,0,0,0-1,0,2.33,2.33,0,0,0-1.44.06,1.24,1.24,0,0,0-1,0h-1a3.09,3.09,0,0,0-1.9,0c-2.25-.36-4.46-.92-6.74-1.21A6.1,6.1,0,0,1,5,33.3a16.51,16.51,0,0,0-1.39-1.59,2.8,2.8,0,0,0-.65-1.52A13.27,13.27,0,0,0,2.2,27.4a15.7,15.7,0,0,0-.58-4.8,3.45,3.45,0,0,0-.13-1.92,2.37,2.37,0,0,0-.3-1.92,2.33,2.33,0,0,0-.06-1.44,50.54,50.54,0,0,0-1-10.56A3.92,3.92,0,0,0,0,4.84,2.17,2.17,0,0,1,1.19,2.41c1-.53,2.16-1.45,3-.88,1.28.89,2.42.49,3.62.38,1.82-.17,3.67.39,5.46-.25A20,20,0,0,1,20,.67,29.84,29.84,0,0,0,26,.15a5.67,5.67,0,0,1,3.95.47,6.76,6.76,0,0,0,3.48.6,9.93,9.93,0,0,1,3.24.59C38.48,2.37,40,3.77,41.92,4ZM17.71,7.45c-1.15-.12-2.11,0-3.06,0C12,7.39,9.59,8.94,6.9,8.77c-.9-.06-1,.63-.82,1.34a43.51,43.51,0,0,1,.71,8.8A9.8,9.8,0,0,0,7,20.8a.92.92,0,0,0,1.25.75,24.72,24.72,0,0,1,5.16-.85c.34,0,.72-.1.71-.47-.07-1.54,1.28-2.1,2.06-3,2-2.43,4.44-4,7.83-2.86a2.36,2.36,0,0,0,1,0,4.77,4.77,0,0,1,4.57,2c.47.63,1.17,1.11,1.37,1.93.14.55.41.86,1,.72,1.81-.43,3.72.08,5.45-.43,1.12-.33,2.63.64,3.27-.61s.22-2.58-.11-3.77c-.68-2.48-1.25-5-4.3-6.05-1.93-.68-3.68-1.28-5.7-.77a3.76,3.76,0,0,1-1.9,0c-3.08-.81-6.16-.35-9.25-.09C18.79,7.41,18.15,7.43,17.71,7.45Zm22.77,17.9h.13c0-1.12,0-2.24,0-3.36-.06-1.82-.17-2-1.88-1.91-2.21.14-4.38.74-6.61.74-.7,0-.87.57-1,1.14-.93,3.6-3.28,5.42-7,5.88a8.63,8.63,0,0,1-9-4.38c-.24-.45-.39-.82-1-.79-2,.09-4,.13-5.94.19-.43,0-.85.17-.83.65.13,3.3.29,6.61,2.9,9.1a3.46,3.46,0,0,0,3.05,1.07,5.94,5.94,0,0,1,2.86.08c3.67,1.22,7.29.32,10.87-.31,3.92-.69,7.67-2.29,11.73-2.22,1.28,0,1.67-.68,1.67-1.8Q40.48,27.39,40.49,25.35ZM21.43,17.69H19.94c-2,0-3.1,1.44-2.3,3.23a17.71,17.71,0,0,0,1.95,3.24c.82,1.11,3.73,2.12,4.72,1.76,1.94-.69,2.92-4.17,1.7-5.92S23.08,17.39,21.43,17.69Z"/><path class="cls-1" d="M32.89,9.27c1.12.05,2.7,1.92,3.13,3.41.38,1.31-.42,1.93-1.32,2.49a4.2,4.2,0,0,1-6.27-3.53,1.43,1.43,0,0,1,.9-1.53C30.51,9.68,31.84,9.8,32.89,9.27Zm-2.05,2.44c.16,1.69.71,2.43,2,2.7.71.15,1-.18,1.07-.87C34,11.89,32.89,11.24,30.84,11.71Z"/></g></g></svg>