<svg xmlns="http://www.w3.org/2000/svg" viewBox="0 0 72.6 25.84"><defs><style>.cls-1{fill:#0f0a08;}</style></defs><title>Asset 3</title><g id="Layer_2" data-name="Layer 2"><g id="Layer_1-2" data-name="Layer 1"><path class="cls-1" d="M63.15,2.35a2.5,2.5,0,0,1-.08,2.48A5,5,0,0,0,62,7.93c-.18-1.33.34-2.31-.58-3.2a12.08,12.08,0,0,0-1.55,3.65,51.16,51.16,0,0,0-.77,9.76,17.37,17.37,0,0,0,1,4.67c.09.29.16.63.58.61a.72.72,0,0,0,.7-.8,11.82,11.82,0,0,0-.49-1.83c-.72-2.62.25-4.59,2.74-5.54a2.42,2.42,0,0,1,2.3,0c.75.52.28,1.33.23,2A3.7,3.7,0,0,1,64.44,20a1.76,1.76,0,0,0-.75,2.08c.24.82,1.09.69,1.79.86a2.69,2.69,0,0,0,3.41-1.3c.8-1.31,2.57-1.6,3.29-.87s.52,2.17-.38,3.27a4.19,4.19,0,0,1-4.91,1.41,4.93,4.93,0,0,1-.91-.29,4,4,0,0,0-4.94.65l-.19-.08-.19.06a2.93,2.93,0,0,1-1.91-1.94,24.48,24.48,0,0,1-1.09-4.38c-.12-.75.08-1.59-.5-2.24-1.8,1.35-1.89,1.33-2.39,3.27A6,6,0,0,1,50,25.3c-1.36-.19-2.44-1-3.69-1.51-.51-.87-.59-2-1.42-2.72a5.81,5.81,0,0,0-1.17,2.08c-.33.65-.63,1.28-1.41,1.49-1.64-.28-3.34-.46-4-2.36A3.47,3.47,0,0,0,37.75,20a.92.92,0,0,0-1.24-.36c-.47.2-.81.38-.67,1a3.49,3.49,0,0,1-.6,3.33c-1.76,0-3.6.5-5.1-.92l-1.87-2.24c-.8,1.33-2.28,1.6-3.1,2.69-1.23.27-2.47.5-3.57-.34-.46-.35-.66-.09-1,.17-1.76,1.5-2,1.51-3.64,0-.51-.46-1.17-.48-1.45,0-1.42,2.23-3.38,1.52-5.3,1.1C8.94,23,8.94,23,7.5,24.28a1,1,0,0,0-.13.19.72.72,0,0,0-.57.63l-1.44.51A6.84,6.84,0,0,0,4,25.49C1.8,25.74,1.11,24,.13,22.65-.36,22,.7,21.62.65,21h0a2.36,2.36,0,0,0,1.69-1.47A2.06,2.06,0,0,0,4.13,18a.27.27,0,0,0,.36-.28c1.36-.19,2.14-.82,1.86-2.35-.11-.6,0-1.25-.31-1.82a4.79,4.79,0,0,0-.59-2.35,2.41,2.41,0,0,0-.17-1.44,1.55,1.55,0,0,0-.37-1.44,1.2,1.2,0,0,0-.19-1,7.45,7.45,0,0,1-.06-2.74c.61-.79,1.07-2.14,2.24-1.74.82.28.15,1.59.43,2.4.08.22.06.48.12.71a38.77,38.77,0,0,1,1,7.33A17.65,17.65,0,0,0,11,21.88a2.29,2.29,0,0,0,2.81,1.28,7.64,7.64,0,0,0-.3-4.68,2.43,2.43,0,0,1,.94-3.25l1.83.09c.06,2.62,1.35,4.81,2.37,7.47.72-1.21,1.42-2.14,1.19-3.14-.37-1.58.66-2.31,1.5-3.21a.81.81,0,0,1,.83-.35c.48.15.49.59.49,1a15.78,15.78,0,0,0-.15,3.06c.18,1,.32,1.91,1.5,2.12a2.49,2.49,0,0,0,2.4-1.58c.32-1.54,1.15-3,.87-4.64-.53-3-.28-6.13-.69-9.17a.74.74,0,0,0-.13-.41A1.69,1.69,0,0,0,27,4.59c-.25-1.42.48-2.31,1.38-3.18a5.06,5.06,0,0,0,.53-.73.43.43,0,0,0,.48-.36L30.79.2h0l.63,1.48c-.42.55-.74-.57-1.16-.07.25,2.53.82,5.06.33,7.61-.31-1-.73-1.89,0-2.86a4.93,4.93,0,0,0,.62-2.74c.06-.66-.51-1.38.14-2,.37-.18.69.05,1,.12l.41,1.78c0,1.83-1.07,3.53-.6,5.41a9,9,0,0,1-.13,4,31.87,31.87,0,0,1-.69,4A2.38,2.38,0,0,0,32,19.6a2.25,2.25,0,0,0,2.49-.06A6,6,0,0,1,36,18.89c1.46-.28,1.7-1.2,1.53-2.47a38.26,38.26,0,0,1-.42-4c-.07-2.6-.88-5.22.23-7.79a3.29,3.29,0,0,0,1.2-2.5A4.19,4.19,0,0,1,40.83,0l.72.26C43.07,2,43.08,4,42.61,6.1c-.5,2.25-1.05,4.5-1.58,6.74-.33,1.41.2,3.11-1.39,4.1-.08.05-.08.31-.06.46.14,1.5.21,3,.48,4.49A1.38,1.38,0,0,0,41.68,23c.64-.08,1-1.27.73-2s-1.14-.62-1.17-1.24c.63-1.92,2.14-1.69,3.58-1.59.19-3.59.46-7.06.54-10.54.07-2.92,1.86-4.68,3.74-6.48,1.08.94,1.47,2.26,2.53,3A1,1,0,0,0,51.8,5c-.23,1.24-1,2.37-1.14,3.54A14.85,14.85,0,0,1,48,15.31a7.19,7.19,0,0,0,.51,7.23c1.22,1.53,2.8,1.47,3.94-.13a4.06,4.06,0,0,0,.62-1.53c.21-.9.29-1.61-1-1.45a1.43,1.43,0,0,1-1.63-.61c1.44-2.07,1.83-2.25,3.37-1.58,1.75.76,1.72.75,2.8-.74a6.13,6.13,0,0,0,1.08-3.09c.32-3,.41-6,1.5-8.91.46-.21.9-.43.68-1.07,1.34-2,1.34-2,3.26-1.12ZM39.44,14.48a52.64,52.64,0,0,0,1.77-8.81A3.4,3.4,0,0,0,41,3.79c-.19-.39-.41-.68-.87-.7s-.71.27-.81.7-.19.77-.28,1.16C38.3,8.14,39,11.29,39.44,14.48ZM47,13.72a1.51,1.51,0,0,0,1.5-1.11c1.12-2.17,1.3-4.57,1.54-6.95a1.5,1.5,0,0,0,0-.47,1.37,1.37,0,0,0-1.15-1.08c-.5-.05-.72.54-.78,1C47.75,8,47.41,10.8,47,13.72ZM6.65,21.12c-.12-.54-.27-1.12-1-1s-1.21.37-1.18,1.19c0,.67.76,1.5,1.3,1.35C6.51,22.44,6.54,21.76,6.65,21.12Zm27.45,1.13c-.41-.89-1-1-1.61-1.34C32.54,22.08,33.13,22.24,34.09,22.24Z"/><path class="cls-1" d="M23.05,8.17c-.12.09-.29.15-.36.27-.34.6-.78,1.48-1.48,1-1-.73.26-1.19.56-1.77C22.3,7.6,23,7.2,23.05,8.17Z"/></g></g></svg>