<svg xmlns="http://www.w3.org/2000/svg" viewBox="0 0 274.05 228.33"><defs><style>.cls-1{fill:#040302;}.cls-2{fill:#1a120f;}</style></defs><title>Asset 2</title><g id="Layer_2" data-name="Layer 2"><g id="Layer_1-2" data-name="Layer 1"><path class="cls-1" d="M131.47,12c-.37-1-1.46-1.93-2.48-1.54-1.5.56-2.29,1.88-3.19,3.07-.55.74-.81,1.7-1.62,2.26-.33-.27-.21-.58-.17-.81.43-2.42.41-4.88.87-7.3a46.75,46.75,0,0,0,.59-5,1.13,1.13,0,0,0-.57-1.2c-.59-.25-1,.17-1.35.53-1.67,1.69-2.46,3.88-3.32,6-.74,1.84-1.51,3.66-2.31,5.61-.61-1.11-.08-2.06.15-2.88a15.11,15.11,0,0,0,.22-6.69,11.59,11.59,0,0,1-.13-1.65c0-.92-.52-1.22-1.36-1.25s-1.11.5-1.27,1.12a98.57,98.57,0,0,0-2,10,5.83,5.83,0,0,1-.32,1.35,4.29,4.29,0,0,1-.24-2.43,18.13,18.13,0,0,0-.6-8.94A3.5,3.5,0,0,0,110.62.25,1.12,1.12,0,0,0,109,.53c-.15.2-.25.42-.55.23l0,0c-.42,3.26-.17,6.55-.34,9.82a.82.82,0,0,1,.2.78c.17.15.14.3,0,.46a1.05,1.05,0,0,1-.1,1c-.52,1.46.07,3-.41,4.48a8.91,8.91,0,0,1-.25.92c-.25.56-.52.7-1,.09a4.39,4.39,0,0,0-3.85-1.78c-1.61.05-2.21,1.18-2.57,2.52.13.25.35.48.21.8a2.42,2.42,0,0,1,.42,1.62c.13.19.3.37.23.64.64.4.64,1.18,1,1.73a1.52,1.52,0,0,1,.58.83c.23.75,1.35.75,1.41,1.65l.09.42A9.12,9.12,0,0,1,106,30c.16.47.49.63.83,1-.29-1.43-1.08-2.59-.86-4h0c-.89-1.32-1.77-2.65-2.67-4A10.36,10.36,0,0,1,101.75,21a2.32,2.32,0,0,1-.07-2.06c.34-.57.81-1.08,1.38-.17a6.83,6.83,0,0,1,1.87,2.73.54.54,0,0,1,.43.54l.43.18a3.26,3.26,0,0,0,3.36-3.32c.27-2.68.61-5.37.67-8.06,0-1.57-.28-3.16-.14-4.18-.16.8,1.13,1.9.63,3.36-.66,1.91-.17,3.94-.32,5.91-.07.89.52,2,.54,3,0,.5.51.67.86.69a1.85,1.85,0,0,0,1.67-.85c.34-.46,1-.48.53-1.38-.25-.47.15-1.36.66-1.79a4,4,0,0,0,.91-1.21c.11-.2.16-.55.44-.45a.64.64,0,0,1,.44.62c0,.75.19,1.5.18,2.25,0,1.32.24,1.5,1.54,1v-.11l.1,0a59.81,59.81,0,0,0,4-9.65c.14-.4.2-1,.74-.84s.27.68.27,1.11a59.74,59.74,0,0,1-1.37,10.48c-.06.32.12.53.18.79H123a16.29,16.29,0,0,1,3.89-3.05c-.42,1.59-1.31,3-1.81,4.5s-1.25,2.78-1.64,4.13c-.63,2.19-2.18,4.15-1.85,6.63.11.84-.74,1.56-.69,2.49,0,.25-.28.28-.46.19-.63-.31-1.41-.39-1.87-1-.81-1-2-1.09-3.15-1.22a7.83,7.83,0,0,1-2.51-.35c-1-.42-2.09.06-3.16,0-.62,0-1.17-.44-1.84-.2-1.73.61-2,1.19-1.6,3a19.67,19.67,0,0,1,.52,6c-.24,2.59-.49,5.21-.53,7.79,0,1.93-.55,3.85-.2,5.8.25,1.4-.54,2.69-.74,4.06-.45,3-1,6-1.63,9a36,36,0,0,0-.89,6.19,1.14,1.14,0,0,1-.23.54A43.75,43.75,0,0,1,98,80.31c-1,1-1.9,2.1-2.92,3.11-2.53,2.51-5.66,3.88-8.89,5.13-2,.79-4.21.61-6.3,1a30.47,30.47,0,0,1-3.57.73c-2.07.15-4.06-1-6.11-.22-.82-.74-1.86.28-2.74-.33a1.14,1.14,0,0,0-1,.09c-1,.64-1.76.21-2.64-.17-.65-.28-1.43-.21-1.61-1.22-.08-.43-.63-.23-.82.12s0,.72-.55.5-.31-.55-.12-.89c.11-.19,0-.43.28-.6.75-.53.48-1-.26-1s-.65-.43-.65-.89a9.28,9.28,0,0,0-.42-4.06,1.07,1.07,0,0,1,.26-.85c1.61-2,3-4.19,5-5.81,1.28-1,2.22-2,2.29-3.73a1.36,1.36,0,0,1,.29-.64c1.84-2.66,1.77-5.86,2.55-8.82.36-1.38-.55-2.45-.32-3.72a.92.92,0,0,1,.62-.86c2-.84,4-1.75,5.93-2.66a29.28,29.28,0,0,0,3.36-1.66c1.27-.8,2.84-.35,4.08-1.15.28-.18.71-.13,1-.3,2.67-1.5,5.62-2.51,8.08-4.41a3.06,3.06,0,0,0,.82-1.07,9.06,9.06,0,0,1,1.79-2.13c.49-.46,1.24-1.5,1-2.24a2.57,2.57,0,0,0-2-1.41,4.88,4.88,0,0,1-.67-.22.7.7,0,0,1-.67-.32,22.84,22.84,0,0,0-7.31.28c-5.66,1-11.12,2.78-16.69,4.15-2,.5-3.94,1.36-6,1.72-.2.42-.64.88.21,1.11a.8.8,0,0,1,.71.09c2.21-.1,4.33-.78,6.51-1a9.46,9.46,0,0,1,2.87-.9c.15-.23.32-.12.49,0l.93-.18c2,.11,3.74-1,5.64-1.39a1.24,1.24,0,0,1,1.18.25.12.12,0,0,1,0,.1,1.21,1.21,0,0,1-.21.05l.73.06a20.75,20.75,0,0,0,4.51-1,3.76,3.76,0,0,1,2.6-.23l.48-.09,1-.32A3.76,3.76,0,0,1,93,41.9a12.12,12.12,0,0,1-4.08,4.25c-1.23.79-2.63,1.32-3.89,2.06-.52.3-.81,1-1.53,1-.42,0-.75-.22-1.22-.19-2,.14-3.45,1.58-5.2,2.3-1.55.64-2.94,1.59-4.56,2.1a23,23,0,0,0-4.21,1.75c-.94.52-2,1.18-1.21,2.69.34.67-.32,1.43-.33,2.2a29.83,29.83,0,0,1-1.17,6.53.33.33,0,0,1-.09.45c-.09,1.8-1.18,3.57-2.51,3.82a8.6,8.6,0,0,1-2.53,0,28.48,28.48,0,0,1-5.13-1.28.41.41,0,0,1-.45-.13c-1.23,0-2.13-.77-3.15-1.26a5,5,0,0,0-2.36-.66V68a3.31,3.31,0,0,1,2,1.47c.26.33,0,.38-.19.49l1,.75.5.24L53,71a1.72,1.72,0,0,1,1,.61l.37.1A34.34,34.34,0,0,0,60,72.81c.7.14,1.32.73,2.15.21.26-.17.48.18.29.61A10.4,10.4,0,0,1,60.68,76c-.9,1.06-1.82,2.11-2.69,3.2-.33.42-.93.87-.11,1.46.15.11.1.62,0,.91a11.66,11.66,0,0,0,.1,5,1.06,1.06,0,0,1-.55,1.27c-1.38.74-2.73,1.61-4.46,1.2a2.49,2.49,0,0,0-1.72.36c-.63.36-1.23.08-1.85.1s-.35-.4-.31-.55a2.57,2.57,0,0,0-.6-2.32c-.44-.56-.52-1.05.12-1.53a1.86,1.86,0,0,0,.46-.54c.2-.33,0-.62-.19-.87s-.48-.35-.72-.09c-1.83,2-3.66.74-5.4-.09a9.09,9.09,0,0,0-2.69-.83,2.83,2.83,0,0,1-1.59-.7A12.76,12.76,0,0,0,35,80c-1.34-.63-2.06-.84-2.73-2.75a4.83,4.83,0,0,0-1.75-2.88c-.82-.53-.72-2.07-.25-3a4.4,4.4,0,0,0,.41-2.61c-.09-.64-.46-1.3,0-1.95a4,4,0,0,1,.35-1.72l.53-2.4c-.21-.51.34-.78.37-1.22a2.18,2.18,0,0,1,.42-1.7.52.52,0,0,1,.24-.52A3.51,3.51,0,0,1,33.47,58c-.07-.37.29-.5.42-.76-.08-.79-.32-1.55.3-2.32.38-.47-.16-1-.48-1.4a.83.83,0,0,0-1.15-.14,4.5,4.5,0,0,0-1.42,1.39,11,11,0,0,0-1.92,2.94,5.17,5.17,0,0,1-.4,1.2.58.58,0,0,1,0,.72,2.42,2.42,0,0,1-.17,1.7l-.2.2a5.4,5.4,0,0,1-.23,2.69s0,.06,0,.08a.94.94,0,0,1-.07.13c-.25,2.16.53,4.3.13,6.47-.08.43-.05.86-.4,1.19.3.26.19.61.22.93.44.1.46.42.39.77a11.18,11.18,0,0,1,.37,2.88,2.42,2.42,0,0,1,1.75,1.42,4.74,4.74,0,0,0,2.85,2.37,9.14,9.14,0,0,1,3.7,2.21,3.62,3.62,0,0,0,3.12,1.24,3.33,3.33,0,0,1,2.45.75l.42.19.68.2c2.49.82,2.42.83,2.71,3.39A1.39,1.39,0,0,1,45.64,90c-1.51.58-2.29,2-3.46,2.88a23.81,23.81,0,0,0-4,3.92,1.48,1.48,0,0,1-.82.45,3.79,3.79,0,0,0-2.4,1.6,4.07,4.07,0,0,1-1.6,1.36,14.91,14.91,0,0,0-5.3,4.53,29.69,29.69,0,0,1-3.28,3.44c-.85.85-1.16,2-1.91,3-1.72,2.12-2.89,4.61-4.39,6.88a12.89,12.89,0,0,1-2.12,3.1c-.43.37-.3.87-.45,1.29a37.91,37.91,0,0,1-2.94,5.68,22,22,0,0,0-2.25,5.1c-1,3.36-2,6.71-3.19,10-.33.87-.09,1.87-.56,2.73-.25.47-.26,1.07-.8,1.37-.2.11-.3.31-.19.5h0a.63.63,0,0,0-.05.45c.2,1.42-.86,2.5-1,3.83,0,.24-.38.51-.08.72.89.62.53,1.9,1.41,2.37-2.64,1.53-5,3.05-5.54,6.31a5.91,5.91,0,0,1-.59,2.29c-.25.41.19.44.28.66s.49.2.57.48a7.88,7.88,0,0,0,3.93.07c.67-.15.9.38,1,.87a1,1,0,0,0,.83.84,2.88,2.88,0,0,0,2.16.25c.5-.18.91.13,1.35.28,1.14.38,2.29,1,3.45,0,.31-.25.48.09.71.19.6.26,1.22.5,1.84.74.44-.15.7-.66,1.23-.63l.65-.75a3.61,3.61,0,0,0,.63-2c0-.53.26-.84.77-.6a3.81,3.81,0,0,0,2,0c.18-.15.35-.33.61-.29l1.06-1.91.05-.26.43-2.6a.46.46,0,0,1-.12-.49,3.57,3.57,0,0,0-1.94-2.51c-.5-.22-.87-.66-.34-1.39,1.11-1.51,1.56-3.36,2.38-5a3.06,3.06,0,0,1,.7-1.19,5.24,5.24,0,0,1,.94-2.28c.89-1.51,1.21-3.25,2-4.76.43-.77-.44-1.45.19-2.21.35-.43.68-.91,1.08-1.32l.14-.25c.12-2.58,1.34-4.86,2-7.28A15.62,15.62,0,0,1,32,128.62c.86-1.72.93-3.72,1.79-5.41,1.08-2.11,2.4-4.08,3.62-6.12l.28.09c.17,1.67.44,3.34.48,5,0,.75.19,1.47.19,2.21a21.61,21.61,0,0,1,.06,4.38c-.41,2.08.48,4.06.41,6.15-.06,1.56-.6,3-.53,4.58a15,15,0,0,0,.06,1.64c.39,2.36-.63,4.56-.73,6.87a62.91,62.91,0,0,0,.2,9.2,8.81,8.81,0,0,0,.42,1.59c.55,1.83-.2,3.61-.1,5.41.25.13.53.23.52.59,1.71.13,2,1.35,2.08,2.73.07,1.21.11,2.43.16,3.64l.06.48,0,.72c.2.25.06.49,0,.72a52.78,52.78,0,0,0,.11,5.53l.09.19a.79.79,0,0,1,0,.76,2,2,0,0,1,0,1.41,3,3,0,0,1-.19,2l0,.48v.72a1.86,1.86,0,0,1,0,1.44c.06.41.58.79.09,1.24l-.11.44a2.33,2.33,0,0,1-.16,1.67l0,.54-.09,2.37v.26a.62.62,0,0,1,.09.92l.07,1.47-.11.93a1,1,0,0,1,.05,1,.39.39,0,0,1,0,.46,1.49,1.49,0,0,1,.16,1,.33.33,0,0,1,.06.48.8.8,0,0,1,.12.69.47.47,0,0,1,.08.51c.21.2.15.44.09.68a5.74,5.74,0,0,1-.22,3.93c.43,2.81-.12,5.62-.15,8.43a51.31,51.31,0,0,0-.05,5.35c.11,1.17-.42,2.39-.2,3.68a18.62,18.62,0,0,1,.22,5c-.06.6.07,1.27-.45,1.76h2.4c-.57-.82-.1-1.66-.06-2.49.07-1.36-.13-2.71-.12-4.05,0-3,0-6,.36-9a65.67,65.67,0,0,0,0-7.51c0-1.64-.69-3.29-.2-4.9.7-2.26.11-4.5.15-6.74,0-1.42.09-2.84.15-4.26.19-4.49.1-9,0-13.45A89.68,89.68,0,0,0,42.67,165c-.08-.56.15-1,.74-1a20.89,20.89,0,0,1,2.6-.17,5.85,5.85,0,0,0,2.82-.73c1.9-.72,4-.33,6-.6a46.22,46.22,0,0,1,10,.08c.73.06,1.6-.65,2.14.12s.26,1.79.16,2.65a39.47,39.47,0,0,0-.13,6.79c.28,5.31.66,10.62.83,15.94.05,1.67.57,3.25.55,4.91a65.79,65.79,0,0,0-.05,6.79c.32,3.55-.29,7.08-.11,10.61a92.34,92.34,0,0,0,1,10.46c.38,2.3-.09,4.62.17,6.92,0,.16-.17.35-.26.53h2.4a.4.4,0,0,1-.35-.41c0-.87-.13-1.75-.14-2.62a35.73,35.73,0,0,0-.42-7.85,1.05,1.05,0,0,1,0-.58,12.37,12.37,0,0,0,.71-6.17,14.1,14.1,0,0,1-.18-3,34.93,34.93,0,0,0,.07-9c-.26-1.51-1-3.1-.25-4.62.9-1.88.49-3.71.17-5.59-.27-1.55-.82-3-.4-4.71a8.59,8.59,0,0,0-.35-5.25,11.24,11.24,0,0,1-.45-2.45,14.55,14.55,0,0,1,.21-4.61A27.76,27.76,0,0,1,68.9,166c-.27-.18,0-.4-.05-.6.11-.45-.12-.95.2-1.37l.06-.48c-.28-.86.07-1.22.93-1.29a15,15,0,0,0,1.69-.33,1.93,1.93,0,0,0,.08-3c-.18-.2-.47-.56-.4-.69.93-1.85-.94-3.57-.11-5.54.41-1-.13-2.4-.13-3.63a70.14,70.14,0,0,0-.81-9.49c-.34-2.53.32-5.06-.05-7.58a17.07,17.07,0,0,1,.37-6.54c.28-1.15-.46-2.36-.15-3.6s.48-2.48.71-3.72l0-.48c-.1-1.43,1-2.39,1.39-3.69a24.57,24.57,0,0,1,1.79-3.85,5,5,0,0,1,.93-1.18,22.22,22.22,0,0,1,5-4,6.88,6.88,0,0,1,1.57-.74c1.11-.35,2.39-.28,3.25-1.29.16-.19.59-.17.9-.18a10.08,10.08,0,0,0,5-2.14,37.84,37.84,0,0,1,4-2.69c1.24-.61,2.22-2.11,4-1.73.43.09.78-1,1.57-.78l0-.09h.09c.1-.87,1.06-1.14,1.51-1.43a21.83,21.83,0,0,0,5.36-5.25A6,6,0,0,1,109,87.49a5.94,5.94,0,0,0,1.85-2.5c.25-.52.23-1.18.88-1.52A3.54,3.54,0,0,0,113.33,81c.71-2.51,1.87-4.88,2.53-7.42a12.44,12.44,0,0,0,.69-3.93c-.07-1.24.78-2.36,1.17-3.55.09-.27.18-.53.25-.8a23.7,23.7,0,0,0,1-4.76s-.07-.06-.06-.06a23.25,23.25,0,0,0,1.26-4.16c0-.11,0-.24,0-.36.11-.39.05-.8.71-.9s.24-.92.37-1.4a25,25,0,0,0,.77-5.19c0-.19.08-.4-.11-.55h0a1.29,1.29,0,0,0,.21-.44,7.15,7.15,0,0,0,.13-1.76c-.33-2.48.38-4.9.38-7.37a3.89,3.89,0,0,0,0-.59c-.18-1.13-.85-2.2.16-3.37.41-.48-.36-1.39-.11-2.11.77-2.28,1.56-4.56,2.4-6.82a4.09,4.09,0,0,1,1.25-2c.94-.7.86-1.9,1.49-2.74,1.06-1.42,1.12-3.49,2.87-4.47.07,0,.17-.15.16-.17C129.95,14.61,132,13.59,131.47,12ZM21.34,161.78c-.25.57-.25,1.31-1.13,1.51-.58.13-1,0-1-.51,0-.94-.58-.94-1.14-.91A1.2,1.2,0,0,0,16.86,163a3.17,3.17,0,0,0,0,1.07,2.17,2.17,0,0,1-.66,2.11,5.58,5.58,0,0,1-1.07-1.81c-.17-.46-.26-1-.92-.89s-1.12.29-1.26,1a11,11,0,0,1-.56,1.82c-.07.19-.21.48-.51.41s-.41-.35-.35-.66a12.68,12.68,0,0,0,.06-1.51c0-.54-.17-.9-.61-1a1.27,1.27,0,0,0-1.26.5,3.38,3.38,0,0,0-.31.77c-.22.6-.89,1.52-1.07,1.33A2.23,2.23,0,0,1,7.46,164c.21-.68.52-1.34.69-2,.08-.31.62-.78,0-1-.47-.16-1.09-.48-1.51.14-.89,1.3-2.6,1.49-3.61,2.64a.91.91,0,0,1-1.12.13c-.48-.27,0-.64,0-.95a8.92,8.92,0,0,1,1.55-4.06c.81-1.21,2.12-1.84,3.06-2.92.66-.76,1.91-.24,2.76.06a7,7,0,0,0,4.66.2,2,2,0,0,1,2,.06c.67.46,1.52.17,2.28.22C21.12,156.72,22.54,159,21.34,161.78ZM127.68,15.57a.85.85,0,0,1-.33,0,.21.21,0,0,1-.07-.19c.52-.68.16-1.92,1.37-2.15C129.49,14.52,127.84,14.71,127.68,15.57Z"/><path class="cls-1" d="M24.39,148.6h0Z"/><path class="cls-1" d="M63.07,45.71h0v0Z"/><path class="cls-1" d="M55.39,228.33c.35-.29.21-.67.16-1-.66-4.45-.6-9-1.59-13.38a7.11,7.11,0,0,1,.09-3.32,10.17,10.17,0,0,0,.22-3c-.2-4.9.54-9.79.42-14.67-.11-4.54.42-9,.57-13.53.09-2.94,0-5.95.9-8.83a2.46,2.46,0,0,0-.05-1.87c-.36-.66.18-.92.44-1.16.49-.46,1.18-.15,1.74,0s.23.65.15,1c-1.4,5.22-.79,10.61-1.47,15.88-.49,3.8,0,7.61-.52,11.4a37.89,37.89,0,0,0,.13,4.72c0,2-.11,4.07,0,6.09.08,1.17.54,2.3.53,3.5,0,2.35.93,4.62.59,7a12.52,12.52,0,0,0,.4,3.73,16.41,16.41,0,0,1-.06,7c-.06.21,0,.39.23.46Z"/><path class="cls-1" d="M131.82,72.28c0-.25-.52-.31-.21-.68,3.31-3.81,5.82-8.18,8.71-12.28,1.6-2.27,2.91-4.71,4.56-6.93a2.6,2.6,0,0,0,.51-1.91,12.89,12.89,0,0,1,.52-4.95c.75-3.07,1.4-6.16,2-9.26.37-1.86.47-3.79.95-5.62a23.13,23.13,0,0,1,2.3-6.22,22.27,22.27,0,0,0,2-4.27,20.34,20.34,0,0,1,1.94-3.81,7.39,7.39,0,0,0,1-2.34c.19-1,1-1.82,1.15-2.73.35-2,2.16-2.12,3.38-2.84A5.65,5.65,0,0,1,164.12,8c.59.08,1.63,1.77,1.55,2.47a40.19,40.19,0,0,1-1.15,6.08,23.91,23.91,0,0,0-1.12,5.52c0,1.25-.79,2.32-1.2,3.48a138.9,138.9,0,0,1-6,14.44c-.15.32-.46.68-.24,1s.65,0,1,0c1.51-.18,3-.76,4.52.11a.72.72,0,0,0,.58,0c1-.45,1.45.26,1.5.92a25.31,25.31,0,0,1,.05,4.77,29,29,0,0,1-.63,3.46,7,7,0,0,0-.11,2.42,8.21,8.21,0,0,1-.41,3c-.56,1.92.23,3.86.3,5.79,0,.94,1.14,1.75,1.27,2.87,0,.31.35.23.58.11A7.11,7.11,0,0,0,166,63.7c2.14-1.9,4.5-3.54,6.35-5.77,1-1.24,1.39-2.75,2.06-4.14,1.38-2.85,2.73-5.72,3.93-8.65a44.09,44.09,0,0,0,1.56-5.26c.21-.8.58-1.26,1.48-1.21s1.51-.82,2.53-.31c.6.3.78.42.69,1.1-.37,2.55-1.65,4.82-2.17,7.3-.74,3.5-2,6.89-2.1,10.53a2.51,2.51,0,0,0,.06.92c.5,1.48,1.49,2.76,1.7,4.36a.45.45,0,0,0,.3.3c1.44.26,2.75,1,4.37.61a11.12,11.12,0,0,0,4.71-2.12A4.65,4.65,0,0,0,193.18,59a2.54,2.54,0,0,1,3.22-1.63c.18.06.4.25.53.2,1.07-.41,1.31.27,1.46,1.08a1.41,1.41,0,0,0-.58,1.16A6.93,6.93,0,0,1,196,62.43a4.32,4.32,0,0,0-1.47,1.32,2.18,2.18,0,0,0-1,.72c-1.55.58-3.22.8-4.73,1.54a2.32,2.32,0,0,0-1.13.07l-.55,0a.34.34,0,0,0-.45-.14l-.85-.27a7.51,7.51,0,0,0-2.76-.49h-.5l-1.16-.42-1.15-.64c-.28-.81-1.11-1-1.67-1.53a16.3,16.3,0,0,0-1.3-3.66c-.18-.29-.4-.67-.81-.6s-.46.42-.55.72c-.57,2-2,3.21-3.49,4.47a8.74,8.74,0,0,0-1.76,1.73l-.05,0-3.45,2L164.61,67a2.36,2.36,0,0,0-1.68-.49.53.53,0,0,0-.49-.22,9.93,9.93,0,0,1-3.27-4.57A22.5,22.5,0,0,1,158.55,51a33.35,33.35,0,0,0,.62-6,.65.65,0,0,0-.33-.65c-.32-.19-.5.08-.68.29a13.43,13.43,0,0,0-2,2.61c-1.52,3-3.92,5.56-5.19,8.76a4.42,4.42,0,0,0-.36,2,7.76,7.76,0,0,1-.43,3.13,21.64,21.64,0,0,0-1.32,4.32c-.2,1.41-.66,2.52-2.28,2.7l-.63-.18c-.11-.38-.25-.25-.4,0l-.32-.12a1.4,1.4,0,0,0-.74-1.77A4.47,4.47,0,0,1,143,64.76c-.28-.39-.77-.84-.14-1.5.31-.33.22-1.05.36-1.88-1.09,1.43-1.85,2.75-2.76,4a21.67,21.67,0,0,1-2.5,2.49c-1.31,1.27-3,2.09-4,3.72-.08.13-.2.23-.16.41Zm21-34.78a119.73,119.73,0,0,0,8.58-23.59A13.44,13.44,0,0,0,159.63,17c-.91,2.58-2.25,5-3.35,7.48s-2.75,4.89-2.83,7.83C153.4,34.06,152.75,35.73,152.79,37.5Z"/><path class="cls-1" d="M119.5,119.76a4.65,4.65,0,0,1-4-.79c-.84-.62-1.82-1.11-2.16-2.26-.21-.73-.61-.42-.91,0a14.29,14.29,0,0,0-1.71,3.14,3.33,3.33,0,0,1-2.68,2,3.82,3.82,0,0,1-3.83-1.09,3.92,3.92,0,0,1-.47-3.31c.13-.79.06-1.58.24-2.36.06-.26.16-.58-.19-.72s-.54.15-.68.36c-.68,1.07-1.28,2.21-2,3.24-1,1.45-1.82,3-3.8,3.71a3.05,3.05,0,0,1-3.64-.87l.06-.48.09-.71a17.12,17.12,0,0,0,.38-3.71c-.05-.59.12-1.6-.39-1.65s-.74.91-.94,1.52l-.28.44a1.34,1.34,0,0,0-.69,1c-.26.18-.24.45-.26.71a1.62,1.62,0,0,0-.42,1c-.33.14-.32.42-.29.71a5,5,0,0,0-1,3.12c-.19.16,0,.36,0,.53-.3.16-.86-.28-.94.4l-.67.31-1.37-.68v-.06l-.05,0a.38.38,0,0,0-.25-.48c0-.27.41-.4.29-.72.28-2.41.68-4.82.07-7.24l-.21-.49a5.55,5.55,0,0,0,0-.94c-.06-.46,0-.8.51-.93a.92.92,0,0,1,1,.36,3.24,3.24,0,0,1,.47,1.18,5.6,5.6,0,0,0,.72,2.24c0-.95,0-1.6,0-2.25,0,0,0,0,0-.06h0c-.13.34-.08.68.25.82s.4-.29.58-.47a14.54,14.54,0,0,1,2-1.86c2.64-1.71,4.85-.16,5,2.4a6.88,6.88,0,0,1-.15,2.58,3.43,3.43,0,0,0-.17,2.4c.34-.43.89-.51,1.14-1a22.73,22.73,0,0,1,5.15-7c1.15-1,2-1.25,3.12-.45a2.89,2.89,0,0,1,.73,3.7,5.85,5.85,0,0,0-.64,3.45,1.66,1.66,0,0,0-.17,1.42c0,.69.55.75,1,.75a1.87,1.87,0,0,0,1.7-1.13,22.32,22.32,0,0,1,2.78-4.53A35.06,35.06,0,0,0,114.3,111c.31-.47.7-.41,1.09-.38s.48.5.45.83c-.12,1.37.49,2.67.32,4.06a3,3,0,0,0,.5,1.81c.86,1.4,1.83,1.4,2.53-.07a21.64,21.64,0,0,0,2.28-5.74c.1-.66.44-.94,1-.31a10.89,10.89,0,0,1,1.78,2.9c.91,2,2.12,3.84,2.52,6.13a20.2,20.2,0,0,0,5.11-5.67c.29-.45.87-.87.69-1.56v0c.55.06.47-.47.59-.73.77-1.59,1.49-3.21,2.23-4.83.42-.92,1.07-1.32,2.06-.87.25.12.46,0,.68,0l.19.31c-.2.3-.47.58-.24,1a1.27,1.27,0,0,0-.49,1c-.25.15-.25.43-.31.67a3.19,3.19,0,0,0-.75,1.44l-.29.88c-.17.27-.47.49-.43.87A13.88,13.88,0,0,0,134,116a.66.66,0,0,0-.43.52l-2.75,3.1a.21.21,0,0,0-.05.12,15.92,15.92,0,0,0-2.18,2.17,4.21,4.21,0,0,0-1.19,3.19c0,1.46.57,2.93-.2,4.4-.27.53-.85,1-.78,1.66l-.8,1c-.52.08-.76.49-1,.86l-.4.11a14.9,14.9,0,0,1-3,1l-1-.22a2.27,2.27,0,0,0-1.59-1,1.09,1.09,0,0,0,0-.18s0-.05-.06-.08c.18-.5.26-1,.49-1.52.7-1.59,2.13-2.68,2.72-4.31l.17-.21c1.13-1.27,1.94-2.81,3.19-4a.71.71,0,0,0,.17-.78,11.31,11.31,0,0,0-1-2.91,4.1,4.1,0,0,0-.73-1.74c-.56-1-.73-2.14-1.58-3.18-.18.56-.29.93-.43,1.29-.46,1.18-.37,2.56-1.24,3.61l-.07.07C119.92,119.2,119.6,119.37,119.5,119.76Zm5.53,7c-1.06,1.77-3.17,3-3.19,5.59C124.39,131.17,124.33,128.77,125,126.8Zm-9-13.28-.09-.15s-.08.06-.08.08a.75.75,0,0,0,.08.16Z"/><path class="cls-1" d="M184,115c-.67,0-.44.71-.94,1-2.54,1.49-4.22-.43-6.12-1.38-.6-.3-.79-.77-1.44,0-1.09,1.34-3.63,1.66-5.22.9l-1.83-.86a3.08,3.08,0,0,1-1-1.85,5.89,5.89,0,0,1,5.61-6,.83.83,0,0,1,.9.61.55.55,0,0,1-.38.76c-1.46.55-1.74,2.08-2.57,3.14-.37.47-.2,1.36-.24,2.06a.36.36,0,0,0,.47.39,7.49,7.49,0,0,0,3.66-1.59c.77-.7.42-1.69.45-2.57s-.15-1.88,1.09-2.33c.48-.18.8-.71,1.43-.35a1.69,1.69,0,0,1,1,1.86,6.45,6.45,0,0,0,.8,4.79,1.13,1.13,0,0,0,1.42.62,3.75,3.75,0,0,0,2.76-3.91,4.59,4.59,0,0,1,0-1.19c.18-.85,1.15-.83,1.63-1.37.45.62,1.34.42,1.83.92.74.77,1.16.49,1.53-.33.08-.17.27-.29.38-.46,1.58-2.38,3.35-2.89,5.86-1.7a5.42,5.42,0,0,1,.74,2.59c0,.2-.11.52.23.58s.38-.24.52-.42a12,12,0,0,1,2.55-2.84,2.59,2.59,0,0,1,3-.08c.06,0,.17.09.17.12-.46,2.08,1.41,3.41,1.69,5.28.24,1.59.38,1.52,1.89.73a1.42,1.42,0,0,0,.95-1.55c-.09-1,0-2.07-.08-3.1a1.66,1.66,0,0,1,.56-1.61c1.86-1.33,3.73-2.61,6.14-1.23l.11,0c.58.09,1.41-.32,1.62.57a3.83,3.83,0,0,1-.44,2.75,19.06,19.06,0,0,1-3.3,3.73c-.32.33-.9.54-.73,1.12s.72.8,1.27.95a5.4,5.4,0,0,0,4-.8c.94-.5,1.8-1.17,2.71-1.75s1.41-.3,1.45.75a2.92,2.92,0,0,1-1.86,3,8.78,8.78,0,0,1-8.65-.22,2.58,2.58,0,0,0-3,.09c-2.33,1.55-6.51-.28-7.25-3-.14-.53-.3-1.06-.46-1.6-.62.15-.79.65-.94,1.06a6.64,6.64,0,0,1-2.1,2.49c-.75.66-1.92-.14-2.87-.51-.65-.26-.51-.77-.46-1.3a20.16,20.16,0,0,0-.23-4.64c-.11-.8-.51-.93-1.07-.32-.88.94-1.9,1.77-2,3.25,0,.61-.1,1.12.4,1.61a1.81,1.81,0,0,1,.3,2,8.07,8.07,0,0,1-.33.9c-.19.43,0,1.24-.42,1.27a2.4,2.4,0,0,1-2-.4.43.43,0,0,0-.54-.11.44.44,0,0,0-.49-.22h0l-.22-.24v-.25c.29-.26,0-.51,0-.75s.15-.73-.26-.78-.58.31-.66.69a1.62,1.62,0,0,1-.14.32h-.06l0,.06C184.36,114.43,184.25,114.81,184,115Z"/><path class="cls-1" d="M234.43,114.17c.09-1.08,1.23-1.47,2-2.13a15.83,15.83,0,0,0,4.78-8.57A3.26,3.26,0,0,1,243,101c.76-.35,1.23.08,1.72.28s.27.87.09,1.31c-.92,2.26-.18,4.29.85,6.26.23.43.51.92,1.16.86s.8-.52,1-1c.66-1.85,2-3.39,2.33-5.4a4.56,4.56,0,0,0,.12-.7,1.47,1.47,0,0,1,2.09-1.53c.78.29,1.59.51,2.37.82a3.26,3.26,0,0,1,2.12,2.39,37.17,37.17,0,0,1,.89,4.41,3.94,3.94,0,0,1-4.63,4.12c-1.46-.28-2.89-.61-3.81-1.91-.28-.4-.48-.06-.7,0a5.1,5.1,0,0,1-5.54-1.67c-.53-.66-.94-.85-1.28.12-.68,1.91-2.73,2.11-4,3.24A12,12,0,0,1,234.43,114.17Zm21.14-6.6a16.18,16.18,0,0,0-1.63-3.9,1.92,1.92,0,0,0-.84-.65c-.3-.12-.7-.25-.86.29a33,33,0,0,1-2.32,5.05c-.29.59-.16,1,.53,1.29.86.39,2,.45,2.45,1.53.15.34.55.13.85,0A3.8,3.8,0,0,0,255.57,107.57Z"/><path class="cls-1" d="M34.33,47.34c1.64-1.6,3.21-3.27,4.94-4.77,2-1.77,4.39-3.22,7.14-3.22,1.77,0,3.53.77,5.31,1.11,3.22.62,6.1,2.27,9.29,3,1.11.25,2.09.6,1.82,2.06,0,.05.15.13.24.2v0c-1.41-.15-2.65-1-4.1-1l-1.13-.3A1.89,1.89,0,0,0,56.59,44c-.25-.28-.62-.17-.92-.29-.47-.45-1.15-.41-1.68-.71a2.57,2.57,0,0,0-1.72-.5l-1.86-.33h-.27a3.37,3.37,0,0,0-1.46-.07l-.72.06A7,7,0,0,0,45,43c-.19,0-.38,0-.48.23-.61.2-1.3.21-1.77.74l-.64.35a5.23,5.23,0,0,0-1.5,1.34c-.15,0-.2.05-.17.19-.67.41-1.6.4-2,1.25l-.07,0,0,.06c-.66,0-.7.62-1.06.92s-.49.51-.88.53c0-.58-.15-.84-.76-.56a3.37,3.37,0,0,0-1.35,1.3c-.56.8-.77,1.9-2,2.1-.28,0-.91.46-.79,1,.24,1-.51,1.52-.89,2.21.47-2.65.82-3.16,1.91-4.54a12.78,12.78,0,0,0,1.76-2.59A.18.18,0,0,0,34.33,47.34Z"/><path class="cls-1" d="M153.78,109.05a6.76,6.76,0,0,1,.13-1.06c.16-.59.15-1.34.92-1.53s1.79-.53,2.48.45c.17.24.51.35.62.91,1.12-1.89,2.52-2.84,4.56-2.48a2.57,2.57,0,0,1,1.63,3.5,2.48,2.48,0,0,0-.46,1.9c.29,1.29-.24,2.59,0,3.9.15.84.87,1.33,1.34.71.92-1.2,1.43-.66,2,.18a.7.7,0,0,0-.53.43,1.38,1.38,0,0,0-.77,1c-1.16-.24-2.44.25-3.48-.82a5.19,5.19,0,0,1-.82-1.37,15,15,0,0,1,.26-3.75.42.42,0,0,0,.18-.47c.61-1.29.85-2.54-.26-3.71-.19-.2-.31-.43-.67-.25-.76.39-2.75,4-2.64,4.89,0,.12,0,.28.09.34.52.4.29.9,0,1.21a11.58,11.58,0,0,0-1.77,3.92c-.35-.08-.7-.2-1,.14-.92,0-1.91-.14-2.09-1.12a6.87,6.87,0,0,1,.39-4.06,2.25,2.25,0,0,0,.26-1.9C154.26,109.58,154,109.33,153.78,109.05Z"/><path class="cls-1" d="M216.51,63.69c-.25,1.6-.31,3.29-1.76,4.38-.18.14-.83,1.17-1-.09a8.47,8.47,0,0,0,.41-2.22c.26-1.63,0-1.87-1.53-1.85l-.47,0-1.89-.59c-.45-.49-1.15-.74-1.41-1.4-.11-.28-.39-.74-.06-.85.93-.32,1.34-1.36,2.26-1.59a18.08,18.08,0,0,1,2.81-.44c.94-.09,1.88,0,2.36,1l.08.25C216.23,61.46,217,62.53,216.51,63.69Z"/><path class="cls-1" d="M185.66,24.66l-.39-.09c-.13-.3-.31-.56-.68-.56h0c-.22-.37-.45-.73-.64-1.11a.93.93,0,0,1,.11-1.1,3.26,3.26,0,0,1,3.67-.07c.54.58.75,1.2-.05,1.81A5.16,5.16,0,0,1,185.66,24.66Z"/><polygon class="cls-1" points="108.44 0.78 108.4 0.81 108.41 0.76 108.44 0.78"/><path class="cls-1" d="M35.42,50c-.22,0-.29.16-.23.36a.45.45,0,0,0-.34.39l-.17.21-.74.38,0,0a3.51,3.51,0,0,0,1-1.62c.07-.18.33-.28.51-.42Z"/><path class="cls-1" d="M33.95,51.34l0,.2c.2-.06.11-.12,0-.18Z"/><path class="cls-1" d="M36.44,48.55l-.23.43C36.28,48.84,36.21,48.61,36.44,48.55Z"/><path class="cls-1" d="M56.53,50.19v.07c-.29,1.18-1.17.53-1.82.59l-.48-.35c-.25-.58-1.23-.75-.9-1.64l.38-.07C54.63,49.28,55.94,49,56.53,50.19Z"/><path class="cls-1" d="M244.59,94.16c-.13-.3-.31-.56-.68-.56h0c-.22-.37-.45-.73-.64-1.11a.93.93,0,0,1,.11-1.1,3.26,3.26,0,0,1,3.67-.07c.54.58.75,1.2-.05,1.81a5.16,5.16,0,0,1-2,1.13"/><path class="cls-2" d="M258.74,172.61a1.12,1.12,0,0,0,1-.11,1.74,1.74,0,0,0,1.52-.63,2.06,2.06,0,0,0,1.36-.8c.62-.06.9-.48,1.1-1,.24.07.6-.46.72.08a2.52,2.52,0,0,1-.49,2c-.31.45-.7.87-.54,1.49-.65.44-.79,1.23-1.24,1.81-.92.45-1.92.64-2.84,1.16a4.62,4.62,0,0,1-5.83-1.8c-.53-.87-.91-1.83-1.37-2.75-.21-1.42-.28-2.89-1.55-4,.22,1.75-.81,3-1.59,4.26-.1.17,0,.45,0,.68l-.78,1.4a3.67,3.67,0,0,0-1.38,1.53c-2.12,1.07-3.22,1.12-4,0a12.31,12.31,0,0,1-1.28-2.51,14,14,0,0,1-.51-1.82c.16-.75.12-1.33-.91-1l-3.8-.13-1.82-2.17c-1,1.23-.7,2.51-.65,3.74l0,1.44a.88.88,0,0,0-.42,1,8.59,8.59,0,0,1-1.63.88c-2.26.66-3.86-.33-4.7-2.81.05-.6-.19-1.22-.74-1.26s-1,.65-1.21,1.23c-1.84.95-3.67,1.28-5.48-.07a3.47,3.47,0,0,0-1.49-1.74,7.92,7.92,0,0,0-1.86,2.69l-3,1.94-2.59-2.8a5.25,5.25,0,0,0-1.14-2.39c-1.09,1-2.37,1.78-2.88,3.25-2.07.41-3.35-.68-4.2-2.36-.68-1.35-1.34-2.51-3.17-1.78-.25.1-.62-.08-.93-.13.17-.61-.7-1.7,1-1.59,1.2.08,1.78-.92,2-2.17.34-1.78.84-2.06,2.6-1.86a14.36,14.36,0,0,1,1.82.44l.14,1.38c-1.27.93-2.25,2-2,3.76.1.65.29,1.23,1.13,1.28a4.93,4.93,0,0,0,4.64-3.6c.27-.92.4-1.94,1.84-1.49.83.26,1.31.52.81,1.48a1.51,1.51,0,0,0-.15,1.15c.45.95-.38,2.45.58,2.84s1.58-1,2.28-1.67a2.62,2.62,0,0,1,3.25-.48c.43.2.8.52,1.21.75s.58.29.88,0,.2-.7,0-1c-.08-.14-.17-.27-.25-.41-1.23-2.18-.87-2.78,1.76-2.94a.9.9,0,0,0,.74.48.44.44,0,0,0,.46.39c.66,1.25,2.14,1.45,3.09,2.53.17-1.15.87-2,1.09-3l.71-.61.48-.06.93.16a1,1,0,0,0,1,.24l.88.31a2.1,2.1,0,0,1-.55,1.69,3.64,3.64,0,0,0-.89,3.15c1.2-1.78,3.1-3.06,3.46-5.36l1.21,0c1.3,2.94,2.2,3.29,5,1.94l.91,0a4.26,4.26,0,0,1,3.7,4.29c0,.53-.11,1.27.61,1.69,2.47-2,3.73-4.77,4.81-7.6.58-1.49.43-1.58-1.43-2.18l-.81-.66c-.46-.87-1.37-1.25-2.05-1.88l-.17-.45.15-.52h1c.42.82,1.21.9,2,1,1.87.23,2,.15,2.18-1.9.07-.87.15-1.74.21-2.61.14-2.08.5-2.23,2.65-1.11-1.09,1-.39,2.23-.24,3.34.32,2.37.48,2.44,2.89,2.12a4.83,4.83,0,0,0,.88-.29l1-.14c2.27-.28,4.59-.33,6.72-1.33l.95-.14a.92.92,0,0,0,1-.24l.92-.2a4.31,4.31,0,0,0,2.5-.82.34.34,0,0,0,.4-.14,1,1,0,0,0,1-.38,8.82,8.82,0,0,0,2.82-.52c-.32.89-.08,1.86-1.41,1.93-.5,0-.82.46-1.09.86-1.95,2.9-4.91,3.93-8.15,4.53-2.66.49-5.34.75-8,1-.53,0-1.35-.34-1.33.46,0,1.61-.47,3.36.81,4.77a2.13,2.13,0,0,0,.33,1.4c0,1.35.64,2,2,1.76A3.3,3.3,0,0,0,258.74,172.61Z"/><path class="cls-2" d="M186.39,171.14a9.22,9.22,0,0,1-6.17,4.46,22,22,0,0,1-4.67.74,3.74,3.74,0,0,1-2.81-1.14c-1.61-1.74-3.17-3.56-2.73-6.3,2.38,2.09,5.12,2,8,1.3,2.62-.66,3.85-2.56,4.82-4.79.31-.72-.15-1.22-.73-1.58a14.58,14.58,0,0,0-4-1.65c-1.46-.41-2.95-.7-4.43-1a4.5,4.5,0,0,1-3.51-6.38,10.34,10.34,0,0,1,4.25-5,19.62,19.62,0,0,1,6.43-2.5,2,2,0,0,1,1.92.59c.67.64.39,1.39.08,2a9.24,9.24,0,0,1-4,4,11.7,11.7,0,0,0-4.38,3.57,46.54,46.54,0,0,1,6.82,3.16.5.5,0,0,0,.54.4,6.51,6.51,0,0,0,1.92,2C186.27,165.22,187.84,167.71,186.39,171.14Z"/><path class="cls-2" d="M193,158.18l.27.51a7.06,7.06,0,0,0,.45,1.56c.52.94-.17,2.56,1,2.9s2.26-.26,3.41-.45c.07,0,.12-.1.18-.15l.94-.13c.39,0,.79-.05,1.18,0s.68,0,.67.44a.9.9,0,0,1-.25.62,8.86,8.86,0,0,1-1.2.75,16.46,16.46,0,0,1-4.1,1.17c-.57.15-1.16.25-1.13,1a35.4,35.4,0,0,0,.32,4c.08.54.55.4.85,0,.54.85.18,1.76.17,2.65-.41.27-.26.71-.33,1.08A2.18,2.18,0,0,1,192.7,173c-.55-.89-.78-1.89-1.24-2.8,0-.4,0-.79,0-1.19-.05-1.89,0-3.83-2.56-4.24a.64.64,0,0,1-.48-.72c.06,0,.11-.11.17-.12.24,0,.47,0,.71,0,1.73,0,2.21-.61,1.73-2.25a1.65,1.65,0,0,0-.46-.79c-.75-.61-.51-1.44-.57-2.21l.58-.53c.34.1.51,0,.55-.38h.81C192.14,158.23,192.59,158.14,193,158.18Z"/><path class="cls-2" d="M126.28,162.06a1.23,1.23,0,0,0-1-.36c-.53-.69-.22-1,.51-1.1a3.85,3.85,0,0,0,1.91,0c.9.23,1.62.17,1.61-1,0-.78.33-1.57,0-2.35a4.38,4.38,0,0,0-.22-2.35c.14-1.63,1.35-1.37,2.41-1.37h0c.18,1.64,1.64,2.68,2,4.26a2.53,2.53,0,0,0,.14,1.42c0,1.18.56,1.75,1.79,1.6a9.81,9.81,0,0,1,1.66-.09c1.3.06,2-.42,1.72-1.82-.07-.38-.19-.76.24-1,1.07-.69,3.13-.07,3.47,1.18.2.73.42,1.18,1.21,1.11,3.7-.3,7.46-.18,10.94-1.82.78,0,.83.47.8,1.05l-1.3,1.75a45.89,45.89,0,0,1-8.67,2.62c-2.68.19-2.68.19-2.37,2.66a3.32,3.32,0,0,0,.07,1.91c-.24,1.3.45,2.28,1,3.27.64,0,.92-.46,1.29-.74a5.32,5.32,0,0,0,1.48-1.53h0a2.26,2.26,0,0,0,1.59-1.39l.11.1.14-.05c1.27.73,1.15,2.09,1.49,3.24a.48.48,0,0,0-.2.6,1.33,1.33,0,0,0-.54,1.34c-.17.17-.35.33-.5.51a4.23,4.23,0,0,1-7,0c-.82-1.05-1.73-2-2.59-3a3,3,0,0,0-1-1.71,1.52,1.52,0,0,0-.65,1.82c-.73,1.83-2.78,2.28-3.89,3.72a1.13,1.13,0,0,0-.91.13c-2.59-.58-3.56-2.55-4.11-4.85a21.49,21.49,0,0,1-.3-2.36c.14-1,.36-2,.41-3.08,0-.87.05-1.85-1.27-1.83a.51.51,0,0,0-.61-.2A1,1,0,0,0,126.28,162.06Zm11.35,2.15c-.92-.13-1.47-.18-2-.3-1.18-.26-1.69.16-1.88,1.4a41.33,41.33,0,0,0-.28,4.56c1.9-.83,2.37-2.68,3.93-3.42C138.12,166.11,137.18,165,137.63,164.21Z"/><path class="cls-2" d="M100.66,173.56c-.36,0-.69.06-.85.45-.69.25-.76.92-1,1.48l0,0A1,1,0,0,0,98,176a23.24,23.24,0,0,0-3.45.69c-1.8.64-3.52.22-5.26-.1-2.06-.38-2.58-2.4-3.7-3.73-.54-.64-.54-1.73-.79-2.62.07-.37.15-.74-.24-1l-.05-1.41a2.12,2.12,0,0,1,1.65.84,4.06,4.06,0,0,0,3.15,1.4l.93.17a3.35,3.35,0,0,0,2.42.41l1.42.08a1.53,1.53,0,0,0,1.94,0l.94-.13c.79.07,1.59.17,1.95-.81a3.38,3.38,0,0,0,1.5-.84,5.59,5.59,0,0,0,1.63-2,1.26,1.26,0,0,0,.13-1.55.46.46,0,0,0-.34-.6,2.12,2.12,0,0,0-2.06-1.57,2.87,2.87,0,0,1-1.89-.69c-.27-.71-.82-.61-1.37-.47A10.4,10.4,0,0,0,92,162a.61.61,0,0,0-.71,0c-1.68-.36-3.54-.35-4.49-2.21a.74.74,0,0,0-.36-1c-.11-.95-.84-1.81-.37-2.83,1.41-1.24,2.54-2.82,4.37-3.56.32-.13.37-.48.26-.82l.53-.61a4.4,4.4,0,0,0,1.75-.71c1.73-1,3.5-1.48,5.39-.41l0,1.25c-.24.28-.63.52-.32,1-2,1.9-3.39,4.34-6,5.56a5.32,5.32,0,0,0-.8.38c-.78.54-.93,1,.21,1.24.22,0,.44,0,.67.07l.17.07a3.79,3.79,0,0,0,2.72.83.2.2,0,0,0,.31.07.51.51,0,0,0,.63.26,19.14,19.14,0,0,0,3.77,1.35,1.89,1.89,0,0,0,1.44.88.47.47,0,0,0,.53.33,8.49,8.49,0,0,0,1.85,2.13l0,.16.14.09c.28,1.65-.75,3.08-.79,4.68-.34.38-.81.67-.8,1.27C101.14,171.78,101.09,172.79,100.66,173.56Z"/><path class="cls-2" d="M117.33,167.94l.14.09.14-.09a3,3,0,0,0,.64,0c.42-2,1.83-1.57,3.17-1.35a2.57,2.57,0,0,0,2,.38c.82.15,1.12-.5,1.53-1l.47-.33c0,.23.17.53.08.67-1,1.35-.25,2.32.69,3.24l.48.48c-.87,2.67-2.08,3.61-4.73,3.65-.78,0-1.56-.06-2.35-.09-1.47-1.55-1.47-1.55-2.92,0h0c-.72.17-.9.82-1.2,1.36-1.08.26-1.89,1.24-3.1,1.16a2.27,2.27,0,0,0-1.44-.11,9.37,9.37,0,0,1-3.89-1.89.48.48,0,0,0-.42-.51.49.49,0,0,0-.33-.53c-1.22-2.66-1-5.06,1.24-7.12a1.32,1.32,0,0,0,.2-.43l1.77-.07.58,1-.66,1.89c-.76.65-1.64,1.24-1,2.46a2.36,2.36,0,0,0,.28,1.87c-.06.61.31.79.82.83a2.32,2.32,0,0,0,2.38.11,2,2,0,0,0,2.11-.85,2,2,0,0,0,1.76-1,.48.48,0,0,0,.51-.45h0c.61-.21.73-.7.78-1.28A4,4,0,0,1,117.33,167.94Zm3.63,3.73a1.68,1.68,0,0,0,1.34-1.18c.14-.42-1.28-1.52-1.93-1.5s-.87.54-.88,1.13C119.47,171.12,120.43,171.18,121,171.67Z"/></g></g></svg>
